<svg width="21" height="17" viewBox="0 0 21 17" fill="none" xmlns="http://www.w3.org/2000/svg">
<path fill-rule="evenodd" clip-rule="evenodd" d="M19.9954 4.02548L16.8361 6.15062C16.7546 6.20543 16.7058 6.297 16.7058 6.39494V10.2538C16.7058 10.4165 16.8381 10.5485 17.0013 10.5485C17.0602 10.5485 17.1177 10.5309 17.1665 10.4981L20.3259 8.37292C20.4073 8.31812 20.4561 8.22657 20.4561 8.12863V4.26981C20.4561 4.10701 20.3238 3.97514 20.1606 3.97514C20.1017 3.97514 20.0442 3.99266 19.9954 4.02548ZM10.7963 3.1078V16.7053C10.7963 16.8681 10.9285 17 11.0917 17C11.1506 17 11.2082 16.9825 11.257 16.9496L15.4391 14.1365C15.5205 14.0817 15.5693 13.9902 15.5693 13.8922V0.29467C15.5693 0.13192 15.4371 0 15.2739 0C15.215 0 15.1574 0.0175422 15.1086 0.0504127L10.9265 2.86353C10.8451 2.91832 10.7963 3.00983 10.7963 3.1078ZM4.88673 3.1078V16.7053C4.88673 16.8681 5.01901 17 5.18221 17C5.2411 17 5.29862 16.9825 5.34745 16.9496L9.52957 14.1365C9.61099 14.0817 9.65981 13.9902 9.65981 13.8922V0.29467C9.65981 0.13192 9.52753 0 9.36433 0C9.30546 0 9.24788 0.0175422 9.19911 0.0504127L5.01699 2.86353C4.93557 2.91832 4.88673 3.00983 4.88673 3.1078ZM3.28958 4.02548L0.130236 6.15062C0.0488431 6.20543 0 6.297 0 6.39494V10.2538C0 10.4165 0.132283 10.5485 0.29548 10.5485C0.354369 10.5485 0.411895 10.5309 0.460717 10.4981L3.62004 8.37292C3.70146 8.31812 3.75028 8.22657 3.75028 8.12863V4.26981C3.75028 4.10701 3.618 3.97514 3.4548 3.97514C3.39593 3.97514 3.33841 3.99266 3.28958 4.02548Z" fill="white"/>
</svg>
