<svg width="15" height="12" viewBox="0 0 15 12" fill="none" xmlns="http://www.w3.org/2000/svg">
<path fill-rule="evenodd" clip-rule="evenodd" d="M14.207 2.84152L11.9622 4.34161C11.9044 4.3803 11.8697 4.44494 11.8697 4.51408V7.23798C11.8697 7.35281 11.9637 7.44598 12.0796 7.44598C12.1215 7.44598 12.1623 7.43358 12.197 7.4104L14.4418 5.9103C14.4997 5.87161 14.5344 5.80699 14.5344 5.73785V3.01398C14.5344 2.89907 14.4404 2.80598 14.3244 2.80598C14.2826 2.80598 14.2417 2.81835 14.207 2.84152ZM7.67078 2.19374V11.792C7.67078 11.9069 7.76477 12 7.88073 12C7.92257 12 7.96344 11.9876 7.99813 11.9644L10.9696 9.97869C11.0275 9.94002 11.0622 9.87541 11.0622 9.80626V0.208002C11.0622 0.0931197 10.9682 0 10.8522 0C10.8104 0 10.7695 0.0123827 10.7348 0.0355854L7.76333 2.02131C7.70549 2.05999 7.67078 2.12459 7.67078 2.19374ZM3.47191 2.19374V11.792C3.47191 11.9069 3.5659 12 3.68185 12C3.72369 12 3.76457 11.9876 3.79926 11.9644L6.77077 9.97869C6.82862 9.94002 6.8633 9.87541 6.8633 9.80626V0.208002C6.8633 0.0931197 6.76931 0 6.65336 0C6.61153 0 6.57062 0.0123827 6.53597 0.0355854L3.56446 2.02131C3.50661 2.05999 3.47191 2.12459 3.47191 2.19374ZM2.33709 2.84152L0.0922922 4.34161C0.0344602 4.3803 -0.000244141 4.44494 -0.000244141 4.51408V7.23798C-0.000244141 7.35281 0.0937464 7.44598 0.209702 7.44598C0.251544 7.44598 0.292418 7.43358 0.327107 7.4104L2.57189 5.9103C2.62974 5.87161 2.66443 5.80699 2.66443 5.73785V3.01398C2.66443 2.89907 2.57044 2.80598 2.45448 2.80598C2.41265 2.80598 2.37178 2.81835 2.33709 2.84152Z" fill="white"/>
</svg>
